<?xml version="1.0" encoding="utf-8"?>
<svg version="1.1" id="Layer_1" xmlns="http://www.w3.org/2000/svg" xmlns:xlink="http://www.w3.org/1999/xlink" x="0px" y="0px"
	 viewBox="0 0 61.1 25.1" style="enable-background:new 0 0 61.1 25.1;" xml:space="preserve">
<path d="M10.2,21.8c-1.6-0.1-2.8-0.5-3.8-1.3c-0.2-0.2-0.6-0.6-0.8-0.8c-0.4-0.5-0.7-1-0.9-1.5c-0.6-1.7-0.3-3.9,0.8-6.3
	c0.9-2.1,2.4-4.1,4.9-7C10.9,4.5,12,3.2,12,3.2c0,0-0.1,0.1-0.1,0.2c-0.7,1.1-1.2,2.4-1.5,3.5c-0.5,1.8-0.4,3.4,0.2,4.6
	c0.4,0.8,1.1,1.5,2,1.9c1.4,0.7,3.5,0.8,6,0.2c0.2,0,8.8-2.3,19.2-5.1c10.4-2.8,18.9-5,18.9-5c0,0-24.2,10.4-36.7,15.7
	c-2,0.9-2.5,1.1-3.5,1.4C14.1,21.5,12,21.9,10.2,21.8L10.2,21.8z"/>
</svg>
