<svg xmlns="http://www.w3.org/2000/svg" width="131" height="19.121" viewBox="0 0 131 19.121">
  <g id="servicenow-header-logo" transform="translate(-0.5 -0.5)">
    <path id="Path_356695" data-name="Path 356695" d="M32.022,6.391a5.626,5.626,0,0,0-3.61,1.3V6.523H25.119V19.35h3.425v-8.2a4.073,4.073,0,0,1,3.109-1.588,3.494,3.494,0,0,1,1.374.206V6.479a5.851,5.851,0,0,0-1.005-.088" fill-rule="evenodd"/>
    <path id="Path_356696" data-name="Path 356696" d="M2.16,15.436A5.369,5.369,0,0,0,5.66,16.7c.922,0,1.633-.45,1.633-1.084,0-1.931-6.191-1.243-6.191-5.369C1.1,7.793,3.473,6.259,6,6.259a7.9,7.9,0,0,1,4.32,1.3L8.72,10.04a4.3,4.3,0,0,0-2.45-.872c-.948,0-1.739.37-1.739,1.031,0,1.666,6.192,1.005,6.192,5.448,0,2.46-2.4,3.967-5.085,3.967A8.815,8.815,0,0,1,.5,17.9Z" fill-rule="evenodd"/>
    <path id="Path_356697" data-name="Path 356697" d="M23.657,12.817c0-3.57-2.5-6.558-6.034-6.558-3.794,0-6.218,3.12-6.218,6.691a6.4,6.4,0,0,0,6.7,6.664,6.919,6.919,0,0,0,5.243-2.3l-1.95-1.957a4.515,4.515,0,0,1-3.214,1.481A3.36,3.36,0,0,1,14.725,13.8h8.853a5.735,5.735,0,0,0,.079-.983Zm-8.774-1.533a2.775,2.775,0,0,1,2.74-2.248,2.552,2.552,0,0,1,2.53,2.248Z" fill-rule="evenodd"/>
    <path id="Path_356698" data-name="Path 356698" d="M41.19,14.351l3.5-7.828h3.558L42.376,19.35H40.005L34.129,6.523h3.557Z" fill-rule="evenodd"/>
    <path id="Path_356699" data-name="Path 356699" d="M51.128.5a2.2,2.2,0,1,1-1.581.63A2.2,2.2,0,0,1,51.128.5" fill-rule="evenodd"/>
    <rect id="Rectangle_187270" data-name="Rectangle 187270" width="3.425" height="12.827" transform="translate(49.415 6.523)"/>
    <path id="Path_356700" data-name="Path 356700" d="M67,16.731a6.766,6.766,0,0,1-5.8,2.883,6.68,6.68,0,1,1,.026-13.355A6.808,6.808,0,0,1,66.6,8.824l-2.424,2.142a3.7,3.7,0,0,0-2.951-1.534A3.433,3.433,0,0,0,57.78,12.95a3.383,3.383,0,0,0,3.531,3.49,3.741,3.741,0,0,0,3.056-1.692Z" fill-rule="evenodd"/>
    <path id="Path_356701" data-name="Path 356701" d="M79.442,17.313a6.918,6.918,0,0,1-5.243,2.3,6.4,6.4,0,0,1-6.692-6.664c0-3.571,2.424-6.691,6.218-6.691,3.53,0,6.033,2.988,6.033,6.558a5.635,5.635,0,0,1-.079.979H70.826a3.36,3.36,0,0,0,3.452,3.041,4.52,4.52,0,0,0,3.215-1.481Zm-3.188-6.029a2.551,2.551,0,0,0-2.529-2.248,2.774,2.774,0,0,0-2.74,2.248Z" fill-rule="evenodd"/>
    <path id="Path_356702" data-name="Path 356702" d="M81.12,19.35V6.523h3.293V7.554a5.625,5.625,0,0,1,3.609-1.3,5.747,5.747,0,0,1,4.427,2.063,6.482,6.482,0,0,1,1.317,4.5V19.35H90.341v-6.8a3.11,3.11,0,0,0-.764-2.407,2.69,2.69,0,0,0-1.923-.714,4.076,4.076,0,0,0-3.109,1.587V19.35Z" fill-rule="evenodd"/>
    <path id="Path_356703" data-name="Path 356703" d="M102.586,6.259A7.5,7.5,0,0,0,97.419,19.21a1.481,1.481,0,0,0,1.926.1,5.355,5.355,0,0,1,6.394,0,1.485,1.485,0,0,0,1.937-.113,7.5,7.5,0,0,0-5.09-12.94M102.542,17.5a3.637,3.637,0,0,1-3.734-3.733,3.734,3.734,0,1,1,7.468,0,3.637,3.637,0,0,1-3.734,3.733" fill="#62d84e" fill-rule="evenodd"/>
    <path id="Path_356704" data-name="Path 356704" d="M116.788,19.35h-2.551L109.15,6.523h3.42l2.789,7.33,2.735-7.33h2.858l2.71,7.33,2.813-7.33H129.9L124.809,19.35h-2.551l-2.735-7.3Z" fill-rule="evenodd"/>
    <path id="Path_356705" data-name="Path 356705" d="M129.935,17.9h-.289v.543H129.4V16.957h.6a.476.476,0,0,1,.478.478.469.469,0,0,1-.295.432l.338.579h-.268Zm-.289-.219H130a.25.25,0,0,0,0-.5h-.351Z"/>
    <path id="Path_356706" data-name="Path 356706" d="M129.9,16.348a1.379,1.379,0,1,1-1.378,1.379,1.379,1.379,0,0,1,1.378-1.379m0-.218a1.6,1.6,0,1,0,1.6,1.6,1.6,1.6,0,0,0-1.6-1.6Z"/>
  </g>
</svg>
